<svg width="4090" height="1673" viewBox="0 0 4090 1673" fill="none" xmlns="http://www.w3.org/2000/svg">
<path d="M4089 1243.48H1" stroke="#D3D3D3" stroke-opacity="0.6" stroke-width="2" strokeLinecap="square"/>
<path d="M2070.55 1V1672" stroke="#D3D3D3" stroke-opacity="0.6" stroke-width="2" strokeLinecap="square"/>
<path d="M932.155 1V1672" stroke="#D3D3D3" stroke-opacity="0.6" stroke-width="2" strokeLinecap="square"/>
<ellipse cx="1455.79" cy="74.0619" rx="15.4734" ry="13.0484" fill="#D3D3D3"/>
<ellipse cx="1519.1" cy="74.0619" rx="15.4734" ry="13.0484" fill="#D3D3D3"/>
<ellipse cx="1582.4" cy="74.0619" rx="15.4734" ry="13.0484" fill="#D3D3D3"/>
<ellipse cx="1645.71" cy="74.0619" rx="15.4734" ry="13.0484" fill="#D3D3D3"/>
<ellipse cx="1709.02" cy="74.0619" rx="15.4734" ry="13.0484" fill="#D3D3D3"/>
<ellipse cx="1772.32" cy="74.0619" rx="15.4734" ry="13.0484" fill="#D3D3D3"/>
<ellipse cx="1835.63" cy="74.0619" rx="15.4734" ry="13.0484" fill="#D3D3D3"/>
<ellipse cx="1898.94" cy="74.0619" rx="15.4734" ry="13.0484" fill="#D3D3D3"/>
<ellipse cx="1455.79" cy="141.151" rx="15.4734" ry="13.0484" fill="#D3D3D3"/>
<ellipse cx="1519.1" cy="141.151" rx="15.4734" ry="13.0484" fill="#D3D3D3"/>
<ellipse cx="1582.4" cy="141.151" rx="15.4734" ry="13.0484" fill="#D3D3D3"/>
<ellipse cx="1645.71" cy="141.151" rx="15.4734" ry="13.0484" fill="#D3D3D3"/>
<ellipse cx="1709.02" cy="141.151" rx="15.4734" ry="13.0484" fill="#D3D3D3"/>
<ellipse cx="1772.32" cy="141.151" rx="15.4734" ry="13.0484" fill="#D3D3D3"/>
<ellipse cx="1835.63" cy="141.151" rx="15.4734" ry="13.0484" fill="#D3D3D3"/>
<ellipse cx="1898.94" cy="141.151" rx="15.4734" ry="13.0484" fill="#D3D3D3"/>
<ellipse cx="1455.79" cy="208.239" rx="15.4734" ry="13.0484" fill="#D3D3D3"/>
<ellipse cx="1519.1" cy="208.239" rx="15.4734" ry="13.0484" fill="#D3D3D3"/>
<ellipse cx="1582.4" cy="208.239" rx="15.4734" ry="13.0484" fill="#D3D3D3"/>
<ellipse cx="1645.71" cy="208.239" rx="15.4734" ry="13.0484" fill="#D3D3D3"/>
<ellipse cx="1709.02" cy="208.239" rx="15.4734" ry="13.0484" fill="#D3D3D3"/>
<ellipse cx="1772.32" cy="208.239" rx="15.4734" ry="13.0484" fill="#D3D3D3"/>
<ellipse cx="1835.63" cy="208.239" rx="15.4734" ry="13.0484" fill="#D3D3D3"/>
<ellipse cx="1898.94" cy="208.239" rx="15.4734" ry="13.0484" fill="#D3D3D3"/>
<ellipse cx="1455.79" cy="275.328" rx="15.4734" ry="13.0484" fill="#D3D3D3"/>
<ellipse cx="1519.1" cy="275.328" rx="15.4734" ry="13.0484" fill="#D3D3D3"/>
<ellipse cx="1582.4" cy="275.328" rx="15.4734" ry="13.0484" fill="#D3D3D3"/>
<ellipse cx="1645.71" cy="275.328" rx="15.4734" ry="13.0484" fill="#D3D3D3"/>
<ellipse cx="1709.02" cy="275.328" rx="15.4734" ry="13.0484" fill="#D3D3D3"/>
<ellipse cx="1772.32" cy="275.328" rx="15.4734" ry="13.0484" fill="#D3D3D3"/>
<ellipse cx="1835.63" cy="275.328" rx="15.4734" ry="13.0484" fill="#D3D3D3"/>
<ellipse cx="1455.79" cy="342.417" rx="15.4734" ry="13.0484" fill="#D3D3D3"/>
<ellipse cx="1519.1" cy="342.417" rx="15.4734" ry="13.0484" fill="#D3D3D3"/>
<ellipse cx="1582.4" cy="342.417" rx="15.4734" ry="13.0484" fill="#D3D3D3"/>
<ellipse cx="1645.71" cy="342.417" rx="15.4734" ry="13.0484" fill="#D3D3D3"/>
<ellipse cx="1709.02" cy="342.417" rx="15.4734" ry="13.0484" fill="#D3D3D3"/>
<ellipse cx="1772.32" cy="342.417" rx="15.4734" ry="13.0484" fill="#D3D3D3"/>
<ellipse cx="1455.79" cy="409.529" rx="15.4734" ry="13.0484" fill="#D3D3D3"/>
<ellipse cx="1519.1" cy="409.529" rx="15.4734" ry="13.0484" fill="#D3D3D3"/>
<ellipse cx="1582.4" cy="409.529" rx="15.4734" ry="13.0484" fill="#D3D3D3"/>
<ellipse cx="1645.71" cy="409.529" rx="15.4734" ry="13.0484" fill="#D3D3D3"/>
<ellipse cx="1709.02" cy="409.529" rx="15.4734" ry="13.0484" fill="#D3D3D3"/>
<ellipse cx="1455.79" cy="476.594" rx="15.4734" ry="13.0484" fill="#D3D3D3"/>
<ellipse cx="1519.1" cy="476.594" rx="15.4734" ry="13.0484" fill="#D3D3D3"/>
<ellipse cx="1582.4" cy="476.594" rx="15.4734" ry="13.0484" fill="#D3D3D3"/>
<ellipse cx="1645.71" cy="476.594" rx="15.4734" ry="13.0484" fill="#D3D3D3"/>
<ellipse cx="1455.79" cy="543.683" rx="15.4734" ry="13.0484" fill="#D3D3D3"/>
<ellipse cx="1519.1" cy="543.683" rx="15.4734" ry="13.0484" fill="#D3D3D3"/>
<ellipse cx="1582.4" cy="543.683" rx="15.4734" ry="13.0484" fill="#D3D3D3"/>
<ellipse cx="1455.79" cy="610.771" rx="15.4734" ry="13.0484" fill="#D3D3D3"/>
<ellipse cx="1519.1" cy="610.771" rx="15.4734" ry="13.0484" fill="#D3D3D3"/>
<ellipse cx="4073.53" cy="1626.7" rx="15.4734" ry="13.0484" transform="rotate(-180 4073.53 1626.7)" fill="#D3D3D3"/>
<ellipse cx="4010.22" cy="1626.7" rx="15.4734" ry="13.0484" transform="rotate(-180 4010.22 1626.7)" fill="#D3D3D3"/>
<ellipse cx="3946.91" cy="1626.7" rx="15.4734" ry="13.0484" transform="rotate(-180 3946.91 1626.7)" fill="#D3D3D3"/>
<ellipse cx="3883.61" cy="1626.7" rx="15.4734" ry="13.0484" transform="rotate(-180 3883.61 1626.7)" fill="#D3D3D3"/>
<ellipse cx="3820.3" cy="1626.7" rx="15.4734" ry="13.0484" transform="rotate(-180 3820.3 1626.7)" fill="#D3D3D3"/>
<ellipse cx="3756.99" cy="1626.7" rx="15.4734" ry="13.0484" transform="rotate(-180 3756.99 1626.7)" fill="#D3D3D3"/>
<ellipse cx="3693.69" cy="1626.7" rx="15.4734" ry="13.0484" transform="rotate(-180 3693.69 1626.7)" fill="#D3D3D3"/>
<ellipse cx="3630.38" cy="1626.7" rx="15.4734" ry="13.0484" transform="rotate(-180 3630.38 1626.7)" fill="#D3D3D3"/>
<ellipse cx="4073.53" cy="1559.61" rx="15.4734" ry="13.0484" transform="rotate(-180 4073.53 1559.61)" fill="#D3D3D3"/>
<ellipse cx="4010.22" cy="1559.61" rx="15.4734" ry="13.0484" transform="rotate(-180 4010.22 1559.61)" fill="#D3D3D3"/>
<ellipse cx="3946.91" cy="1559.61" rx="15.4734" ry="13.0484" transform="rotate(-180 3946.91 1559.61)" fill="#D3D3D3"/>
<ellipse cx="3883.61" cy="1559.61" rx="15.4734" ry="13.0484" transform="rotate(-180 3883.61 1559.61)" fill="#D3D3D3"/>
<ellipse cx="3820.3" cy="1559.61" rx="15.4734" ry="13.0484" transform="rotate(-180 3820.3 1559.61)" fill="#D3D3D3"/>
<ellipse cx="3756.99" cy="1559.61" rx="15.4734" ry="13.0484" transform="rotate(-180 3756.99 1559.61)" fill="#D3D3D3"/>
<ellipse cx="3693.69" cy="1559.61" rx="15.4734" ry="13.0484" transform="rotate(-180 3693.69 1559.61)" fill="#D3D3D3"/>
<ellipse cx="3630.38" cy="1559.61" rx="15.4734" ry="13.0484" transform="rotate(-180 3630.38 1559.61)" fill="#D3D3D3"/>
<ellipse cx="4073.53" cy="1492.52" rx="15.4734" ry="13.0484" transform="rotate(-180 4073.53 1492.52)" fill="#D3D3D3"/>
<ellipse cx="4010.22" cy="1492.52" rx="15.4734" ry="13.0484" transform="rotate(-180 4010.22 1492.52)" fill="#D3D3D3"/>
<ellipse cx="3946.91" cy="1492.52" rx="15.4734" ry="13.0484" transform="rotate(-180 3946.91 1492.52)" fill="#D3D3D3"/>
<ellipse cx="3883.61" cy="1492.52" rx="15.4734" ry="13.0484" transform="rotate(-180 3883.61 1492.52)" fill="#D3D3D3"/>
<ellipse cx="3820.3" cy="1492.52" rx="15.4734" ry="13.0484" transform="rotate(-180 3820.3 1492.52)" fill="#D3D3D3"/>
<ellipse cx="3756.99" cy="1492.52" rx="15.4734" ry="13.0484" transform="rotate(-180 3756.99 1492.52)" fill="#D3D3D3"/>
<ellipse cx="3693.69" cy="1492.52" rx="15.4734" ry="13.0484" transform="rotate(-180 3693.69 1492.52)" fill="#D3D3D3"/>
<ellipse cx="3630.38" cy="1492.52" rx="15.4734" ry="13.0484" transform="rotate(-180 3630.38 1492.52)" fill="#D3D3D3"/>
<ellipse cx="4073.53" cy="1425.44" rx="15.4734" ry="13.0484" transform="rotate(-180 4073.53 1425.44)" fill="#D3D3D3"/>
<ellipse cx="4010.22" cy="1425.44" rx="15.4734" ry="13.0484" transform="rotate(-180 4010.22 1425.44)" fill="#D3D3D3"/>
<ellipse cx="3946.91" cy="1425.44" rx="15.4734" ry="13.0484" transform="rotate(-180 3946.91 1425.44)" fill="#D3D3D3"/>
<ellipse cx="3883.61" cy="1425.44" rx="15.4734" ry="13.0484" transform="rotate(-180 3883.61 1425.44)" fill="#D3D3D3"/>
<ellipse cx="3820.3" cy="1425.44" rx="15.4734" ry="13.0484" transform="rotate(-180 3820.3 1425.44)" fill="#D3D3D3"/>
<ellipse cx="3756.99" cy="1425.44" rx="15.4734" ry="13.0484" transform="rotate(-180 3756.99 1425.44)" fill="#D3D3D3"/>
<ellipse cx="3693.69" cy="1425.44" rx="15.4734" ry="13.0484" transform="rotate(-180 3693.69 1425.44)" fill="#D3D3D3"/>
<ellipse cx="4073.53" cy="1358.35" rx="15.4734" ry="13.0484" transform="rotate(-180 4073.53 1358.35)" fill="#D3D3D3"/>
<ellipse cx="4010.22" cy="1358.35" rx="15.4734" ry="13.0484" transform="rotate(-180 4010.22 1358.35)" fill="#D3D3D3"/>
<ellipse cx="3946.91" cy="1358.35" rx="15.4734" ry="13.0484" transform="rotate(-180 3946.91 1358.35)" fill="#D3D3D3"/>
<ellipse cx="3883.61" cy="1358.35" rx="15.4734" ry="13.0484" transform="rotate(-180 3883.61 1358.35)" fill="#D3D3D3"/>
<ellipse cx="3820.3" cy="1358.35" rx="15.4734" ry="13.0484" transform="rotate(-180 3820.3 1358.35)" fill="#D3D3D3"/>
<ellipse cx="3756.99" cy="1358.35" rx="15.4734" ry="13.0484" transform="rotate(-180 3756.99 1358.35)" fill="#D3D3D3"/>
<ellipse cx="4073.53" cy="1291.24" rx="15.4734" ry="13.0484" transform="rotate(-180 4073.53 1291.24)" fill="#D3D3D3"/>
<ellipse cx="4010.22" cy="1291.24" rx="15.4734" ry="13.0484" transform="rotate(-180 4010.22 1291.24)" fill="#D3D3D3"/>
<ellipse cx="3946.91" cy="1291.24" rx="15.4734" ry="13.0484" transform="rotate(-180 3946.91 1291.24)" fill="#D3D3D3"/>
<ellipse cx="3883.61" cy="1291.24" rx="15.4734" ry="13.0484" transform="rotate(-180 3883.61 1291.24)" fill="#D3D3D3"/>
<ellipse cx="3820.3" cy="1291.24" rx="15.4734" ry="13.0484" transform="rotate(-180 3820.3 1291.24)" fill="#D3D3D3"/>
<ellipse cx="4073.53" cy="1224.17" rx="15.4734" ry="13.0484" transform="rotate(-180 4073.53 1224.17)" fill="#D3D3D3"/>
<ellipse cx="4010.22" cy="1224.17" rx="15.4734" ry="13.0484" transform="rotate(-180 4010.22 1224.17)" fill="#D3D3D3"/>
<ellipse cx="3946.91" cy="1224.17" rx="15.4734" ry="13.0484" transform="rotate(-180 3946.91 1224.17)" fill="#D3D3D3"/>
<ellipse cx="3883.61" cy="1224.17" rx="15.4734" ry="13.0484" transform="rotate(-180 3883.61 1224.17)" fill="#D3D3D3"/>
<ellipse cx="4073.53" cy="1157.08" rx="15.4734" ry="13.0484" transform="rotate(-180 4073.53 1157.08)" fill="#D3D3D3"/>
<ellipse cx="4010.22" cy="1157.08" rx="15.4734" ry="13.0484" transform="rotate(-180 4010.22 1157.08)" fill="#D3D3D3"/>
<ellipse cx="3946.91" cy="1157.08" rx="15.4734" ry="13.0484" transform="rotate(-180 3946.91 1157.08)" fill="#D3D3D3"/>
<ellipse cx="4073.53" cy="1089.99" rx="15.4734" ry="13.0484" transform="rotate(-180 4073.53 1089.99)" fill="#D3D3D3"/>
<ellipse cx="4010.22" cy="1089.99" rx="15.4734" ry="13.0484" transform="rotate(-180 4010.22 1089.99)" fill="#D3D3D3"/>
</svg>
