<svg width="1088" height="762" viewBox="0 0 1088 762" fill="none" xmlns="http://www.w3.org/2000/svg">
<path d="M1087 497H1" stroke="#D3D3D3" stroke-opacity="0.6" stroke-width="2" strokeLinecap="square"/>
<path d="M252 1V761" stroke="#D3D3D3" stroke-opacity="0.6" stroke-width="2" strokeLinecap="square"/>
<circle cx="316.451" cy="6.51899" r="5.45051" fill="#D3D3D3"/>
<ellipse cx="338.751" cy="6.51899" rx="5.45051" ry="5.45051" fill="#D3D3D3"/>
<ellipse cx="361.05" cy="6.51899" rx="5.45051" ry="5.45051" fill="#D3D3D3"/>
<ellipse cx="383.35" cy="6.51899" rx="5.45051" ry="5.45051" fill="#D3D3D3"/>
<ellipse cx="405.65" cy="6.51899" rx="5.45051" ry="5.45051" fill="#D3D3D3"/>
<ellipse cx="427.95" cy="6.51899" rx="5.45051" ry="5.45051" fill="#D3D3D3"/>
<ellipse cx="450.25" cy="6.51899" rx="5.45051" ry="5.45051" fill="#D3D3D3"/>
<ellipse cx="472.55" cy="6.51899" rx="5.45051" ry="5.45051" fill="#D3D3D3"/>
<ellipse cx="316.451" cy="34.5429" rx="5.45051" ry="5.45051" fill="#D3D3D3"/>
<ellipse cx="338.751" cy="34.5429" rx="5.45051" ry="5.45051" fill="#D3D3D3"/>
<circle cx="361.05" cy="34.5429" r="5.45051" fill="#D3D3D3"/>
<circle cx="383.35" cy="34.5429" r="5.45051" fill="#D3D3D3"/>
<circle cx="405.65" cy="34.5429" r="5.45051" fill="#D3D3D3"/>
<circle cx="427.95" cy="34.5429" r="5.45051" fill="#D3D3D3"/>
<circle cx="450.25" cy="34.5429" r="5.45051" fill="#D3D3D3"/>
<circle cx="472.55" cy="34.5429" r="5.45051" fill="#D3D3D3"/>
<ellipse cx="316.451" cy="62.5667" rx="5.45051" ry="5.45051" fill="#D3D3D3"/>
<ellipse cx="338.751" cy="62.5667" rx="5.45051" ry="5.45051" fill="#D3D3D3"/>
<circle cx="361.05" cy="62.5667" r="5.45051" fill="#D3D3D3"/>
<circle cx="383.35" cy="62.5667" r="5.45051" fill="#D3D3D3"/>
<circle cx="405.65" cy="62.5667" r="5.45051" fill="#D3D3D3"/>
<circle cx="427.95" cy="62.5667" r="5.45051" fill="#D3D3D3"/>
<circle cx="450.25" cy="62.5667" r="5.45051" fill="#D3D3D3"/>
<circle cx="472.55" cy="62.5667" r="5.45051" fill="#D3D3D3"/>
<ellipse cx="316.451" cy="90.5906" rx="5.45051" ry="5.45051" fill="#D3D3D3"/>
<ellipse cx="338.751" cy="90.5906" rx="5.45051" ry="5.45051" fill="#D3D3D3"/>
<circle cx="361.05" cy="90.5906" r="5.45051" fill="#D3D3D3"/>
<circle cx="383.35" cy="90.5906" r="5.45051" fill="#D3D3D3"/>
<circle cx="405.65" cy="90.5906" r="5.45051" fill="#D3D3D3"/>
<circle cx="427.95" cy="90.5906" r="5.45051" fill="#D3D3D3"/>
<circle cx="450.25" cy="90.5906" r="5.45051" fill="#D3D3D3"/>
<ellipse cx="316.451" cy="118.615" rx="5.45051" ry="5.45051" fill="#D3D3D3"/>
<ellipse cx="338.751" cy="118.615" rx="5.45051" ry="5.45051" fill="#D3D3D3"/>
<circle cx="361.05" cy="118.615" r="5.45051" fill="#D3D3D3"/>
<circle cx="383.35" cy="118.615" r="5.45051" fill="#D3D3D3"/>
<circle cx="405.65" cy="118.615" r="5.45051" fill="#D3D3D3"/>
<circle cx="427.95" cy="118.615" r="5.45051" fill="#D3D3D3"/>
<ellipse cx="316.451" cy="146.648" rx="5.45051" ry="5.45051" fill="#D3D3D3"/>
<ellipse cx="338.751" cy="146.648" rx="5.45051" ry="5.45051" fill="#D3D3D3"/>
<circle cx="361.05" cy="146.648" r="5.45051" fill="#D3D3D3"/>
<circle cx="383.35" cy="146.648" r="5.45051" fill="#D3D3D3"/>
<circle cx="405.65" cy="146.648" r="5.45051" fill="#D3D3D3"/>
<ellipse cx="316.451" cy="174.662" rx="5.45051" ry="5.45051" fill="#D3D3D3"/>
<ellipse cx="338.751" cy="174.662" rx="5.45051" ry="5.45051" fill="#D3D3D3"/>
<circle cx="361.05" cy="174.662" r="5.45051" fill="#D3D3D3"/>
<circle cx="383.35" cy="174.662" r="5.45051" fill="#D3D3D3"/>
<ellipse cx="316.451" cy="202.686" rx="5.45051" ry="5.45051" fill="#D3D3D3"/>
<ellipse cx="338.751" cy="202.686" rx="5.45051" ry="5.45051" fill="#D3D3D3"/>
<circle cx="361.05" cy="202.686" r="5.45051" fill="#D3D3D3"/>
<circle cx="316.451" cy="230.71" r="5.45051" fill="#D3D3D3"/>
<circle cx="338.751" cy="230.71" r="5.45051" fill="#D3D3D3"/>
<circle cx="1081.55" cy="755.078" r="5.45051" transform="rotate(-180 1081.55 755.078)" fill="#D3D3D3"/>
<ellipse cx="1059.25" cy="755.078" rx="5.45051" ry="5.45051" transform="rotate(-180 1059.25 755.078)" fill="#D3D3D3"/>
<ellipse cx="1036.95" cy="755.078" rx="5.45051" ry="5.45051" transform="rotate(-180 1036.95 755.078)" fill="#D3D3D3"/>
<ellipse cx="1014.65" cy="755.078" rx="5.45051" ry="5.45051" transform="rotate(-180 1014.65 755.078)" fill="#D3D3D3"/>
<ellipse cx="992.35" cy="755.078" rx="5.45051" ry="5.45051" transform="rotate(-180 992.35 755.078)" fill="#D3D3D3"/>
<ellipse cx="970.05" cy="755.078" rx="5.45051" ry="5.45051" transform="rotate(-180 970.05 755.078)" fill="#D3D3D3"/>
<ellipse cx="947.75" cy="755.078" rx="5.45051" ry="5.45051" transform="rotate(-180 947.75 755.078)" fill="#D3D3D3"/>
<ellipse cx="925.451" cy="755.078" rx="5.45051" ry="5.45051" transform="rotate(-180 925.451 755.078)" fill="#D3D3D3"/>
<ellipse cx="1081.55" cy="727.055" rx="5.45051" ry="5.45051" transform="rotate(-180 1081.55 727.055)" fill="#D3D3D3"/>
<ellipse cx="1059.25" cy="727.055" rx="5.45051" ry="5.45051" transform="rotate(-180 1059.25 727.055)" fill="#D3D3D3"/>
<circle cx="1036.95" cy="727.055" r="5.45051" transform="rotate(-180 1036.95 727.055)" fill="#D3D3D3"/>
<circle cx="1014.65" cy="727.055" r="5.45051" transform="rotate(-180 1014.65 727.055)" fill="#D3D3D3"/>
<circle cx="992.35" cy="727.055" r="5.45051" transform="rotate(-180 992.35 727.055)" fill="#D3D3D3"/>
<circle cx="970.05" cy="727.055" r="5.45051" transform="rotate(-180 970.05 727.055)" fill="#D3D3D3"/>
<circle cx="947.75" cy="727.055" r="5.45051" transform="rotate(-180 947.75 727.055)" fill="#D3D3D3"/>
<circle cx="925.451" cy="727.055" r="5.45051" transform="rotate(-180 925.451 727.055)" fill="#D3D3D3"/>
<ellipse cx="1081.55" cy="699.031" rx="5.45051" ry="5.45051" transform="rotate(-180 1081.55 699.031)" fill="#D3D3D3"/>
<ellipse cx="1059.25" cy="699.031" rx="5.45051" ry="5.45051" transform="rotate(-180 1059.25 699.031)" fill="#D3D3D3"/>
<circle cx="1036.95" cy="699.031" r="5.45051" transform="rotate(-180 1036.95 699.031)" fill="#D3D3D3"/>
<circle cx="1014.65" cy="699.031" r="5.45051" transform="rotate(-180 1014.65 699.031)" fill="#D3D3D3"/>
<circle cx="992.35" cy="699.031" r="5.45051" transform="rotate(-180 992.35 699.031)" fill="#D3D3D3"/>
<circle cx="970.05" cy="699.031" r="5.45051" transform="rotate(-180 970.05 699.031)" fill="#D3D3D3"/>
<circle cx="947.75" cy="699.031" r="5.45051" transform="rotate(-180 947.75 699.031)" fill="#D3D3D3"/>
<circle cx="925.451" cy="699.031" r="5.45051" transform="rotate(-180 925.451 699.031)" fill="#D3D3D3"/>
<ellipse cx="1081.55" cy="671.007" rx="5.45051" ry="5.45051" transform="rotate(-180 1081.55 671.007)" fill="#D3D3D3"/>
<ellipse cx="1059.25" cy="671.007" rx="5.45051" ry="5.45051" transform="rotate(-180 1059.25 671.007)" fill="#D3D3D3"/>
<circle cx="1036.95" cy="671.007" r="5.45051" transform="rotate(-180 1036.95 671.007)" fill="#D3D3D3"/>
<circle cx="1014.65" cy="671.007" r="5.45051" transform="rotate(-180 1014.65 671.007)" fill="#D3D3D3"/>
<circle cx="992.35" cy="671.007" r="5.45051" transform="rotate(-180 992.35 671.007)" fill="#D3D3D3"/>
<circle cx="970.05" cy="671.007" r="5.45051" transform="rotate(-180 970.05 671.007)" fill="#D3D3D3"/>
<circle cx="947.75" cy="671.007" r="5.45051" transform="rotate(-180 947.75 671.007)" fill="#D3D3D3"/>
<ellipse cx="1081.55" cy="642.983" rx="5.45051" ry="5.45051" transform="rotate(-180 1081.55 642.983)" fill="#D3D3D3"/>
<ellipse cx="1059.25" cy="642.983" rx="5.45051" ry="5.45051" transform="rotate(-180 1059.25 642.983)" fill="#D3D3D3"/>
<circle cx="1036.95" cy="642.983" r="5.45051" transform="rotate(-180 1036.95 642.983)" fill="#D3D3D3"/>
<circle cx="1014.65" cy="642.983" r="5.45051" transform="rotate(-180 1014.65 642.983)" fill="#D3D3D3"/>
<circle cx="992.35" cy="642.983" r="5.45051" transform="rotate(-180 992.35 642.983)" fill="#D3D3D3"/>
<circle cx="970.05" cy="642.983" r="5.45051" transform="rotate(-180 970.05 642.983)" fill="#D3D3D3"/>
<ellipse cx="1081.55" cy="614.949" rx="5.45051" ry="5.45051" transform="rotate(-180 1081.55 614.949)" fill="#D3D3D3"/>
<ellipse cx="1059.25" cy="614.949" rx="5.45051" ry="5.45051" transform="rotate(-180 1059.25 614.949)" fill="#D3D3D3"/>
<circle cx="1036.95" cy="614.949" r="5.45051" transform="rotate(-180 1036.95 614.949)" fill="#D3D3D3"/>
<circle cx="1014.65" cy="614.949" r="5.45051" transform="rotate(-180 1014.65 614.949)" fill="#D3D3D3"/>
<circle cx="992.35" cy="614.949" r="5.45051" transform="rotate(-180 992.35 614.949)" fill="#D3D3D3"/>
<ellipse cx="1081.55" cy="586.935" rx="5.45051" ry="5.45051" transform="rotate(-180 1081.55 586.935)" fill="#D3D3D3"/>
<ellipse cx="1059.25" cy="586.935" rx="5.45051" ry="5.45051" transform="rotate(-180 1059.25 586.935)" fill="#D3D3D3"/>
<circle cx="1036.95" cy="586.935" r="5.45051" transform="rotate(-180 1036.95 586.935)" fill="#D3D3D3"/>
<circle cx="1014.65" cy="586.935" r="5.45051" transform="rotate(-180 1014.65 586.935)" fill="#D3D3D3"/>
<ellipse cx="1081.55" cy="558.911" rx="5.45051" ry="5.45051" transform="rotate(-180 1081.55 558.911)" fill="#D3D3D3"/>
<ellipse cx="1059.25" cy="558.911" rx="5.45051" ry="5.45051" transform="rotate(-180 1059.25 558.911)" fill="#D3D3D3"/>
<circle cx="1036.95" cy="558.911" r="5.45051" transform="rotate(-180 1036.95 558.911)" fill="#D3D3D3"/>
<circle cx="1081.55" cy="530.887" r="5.45051" transform="rotate(-180 1081.55 530.887)" fill="#D3D3D3"/>
<circle cx="1059.25" cy="530.887" r="5.45051" transform="rotate(-180 1059.25 530.887)" fill="#D3D3D3"/>
</svg>
