<svg id="visual" viewBox="0 0 900 450" width="900" height="450" xmlns="http://www.w3.org/2000/svg" xmlns:xlink="http://www.w3.org/1999/xlink" version="1.1"><rect x="0" y="0" width="900" height="450" fill="#AB893B"></rect><path d="M380 0L499 0L499 64L459 64L459 129L414 129L414 193L521 193L521 257L520 257L520 321L450 321L450 386L433 386L433 450L0 450L0 386L0 386L0 321L0 321L0 257L0 257L0 193L0 193L0 129L0 129L0 64L0 64L0 0L0 0Z" fill="#e5e2e7"></path><path d="M355 0L370 0L370 64L295 64L295 129L280 129L280 193L364 193L364 257L372 257L372 321L346 321L346 386L278 386L278 450L0 450L0 386L0 386L0 321L0 321L0 257L0 257L0 193L0 193L0 129L0 129L0 64L0 64L0 0L0 0Z" fill="#bbafaf"></path><path d="M100 0L175 0L175 64L234 64L234 129L142 129L142 193L209 193L209 257L137 257L137 321L130 321L130 386L233 386L233 450L0 450L0 386L0 386L0 321L0 321L0 257L0 257L0 193L0 193L0 129L0 129L0 64L0 64L0 0L0 0Z" fill="#888277"></path></svg>