<svg width="139" height="1032" viewBox="0 0 139 1032" fill="none" xmlns="http://www.w3.org/2000/svg">
<path fillRule="evenodd" clipRule="evenodd" d="M7.83373 0.000488281L7.75633 11.9173L137.894 12.7625L137.976 0.000488281H7.83373ZM21.843 1032C22.1714 1030.85 22.5648 1029.73 23.0234 1028.66C24.6071 1025.01 26.8173 1021.9 29.654 1019.34C32.5503 1016.84 36.0129 1014.91 40.0418 1013.56C44.0703 1012.26 48.5745 1011.63 53.5544 1011.67L131.403 1012.17L131.56 987.961L53.6216 987.455C45.8818 987.405 38.7039 988.588 32.0881 991.005C25.5319 993.483 19.8388 997.016 15.0089 1001.6C10.2386 1006.25 6.48185 1011.9 3.73865 1018.54C2.06463 1022.69 0.902193 1027.17 0.251343 1032H21.843ZM45.3116 160.586C53.4508 163.819 62.2903 165.466 71.83 165.528C78.1899 165.569 84.2545 164.889 90.0237 163.486C95.7925 162.144 101.146 160.138 106.083 157.47C111.021 154.802 115.482 151.531 119.467 147.657C123.512 143.843 126.93 139.515 129.722 134.673C132.573 129.832 134.768 124.506 136.306 118.696C137.903 112.886 138.724 106.681 138.767 100.081C138.83 90.2416 137.209 81.2609 133.901 73.1393C130.654 65.018 126.079 58.0282 120.177 52.1697C114.275 46.3712 107.254 41.8555 99.1148 38.6226C91.0356 35.3901 82.2262 33.7428 72.6864 33.6809C63.1466 33.6189 54.2864 35.1514 46.1059 38.2783C37.9855 41.4057 30.9366 45.83 24.9593 51.5513C18.9816 57.3326 14.2865 64.2622 10.874 72.3402C7.52144 80.4186 5.81322 89.3777 5.74931 99.2175C5.68502 109.117 7.27653 118.128 10.5239 126.249C13.8312 134.371 18.4361 141.331 24.3385 147.129C30.241 152.928 37.232 157.413 45.3116 160.586ZM91.1791 138.023C85.5267 139.907 79.1306 140.825 71.9908 140.779C64.8509 140.732 58.4373 139.731 52.7499 137.774C47.1225 135.817 42.3403 133.056 38.4034 129.49C34.5265 125.925 31.5546 121.586 29.4878 116.472C27.4205 111.419 26.4076 105.712 26.4489 99.352C26.4902 92.9921 27.5774 87.269 29.7105 82.1828C31.8431 77.1565 34.8711 72.8561 38.7944 69.2815C42.7773 65.7673 47.595 63.0685 53.2473 61.1852C58.9597 59.3023 65.3858 58.384 72.5256 58.4304C79.6655 58.4767 86.0491 59.4782 91.6765 61.4348C97.3639 63.3918 102.176 66.1531 106.113 69.7187C110.05 73.3444 113.051 77.684 115.119 82.7375C117.185 87.851 118.198 93.5877 118.157 99.9476C118.116 106.307 117.029 112.001 114.896 117.027C112.763 122.113 109.705 126.413 105.722 129.927C101.739 133.442 96.8914 136.14 91.1791 138.023ZM116.309 273.686L136.198 273.815L136.865 171.127L116.975 170.998L116.721 210.237L6.47295 209.521L6.31572 233.731L116.563 234.447L116.309 273.686ZM108.943 396.151C109.538 396.994 110.462 397.78 111.718 398.509L123.108 404.613C127.458 400.081 130.854 394.583 133.296 388.119C135.738 381.654 136.984 374.582 137.034 366.902C137.078 360.062 136.067 353.996 134.002 348.702C131.936 343.409 129.175 338.951 125.718 335.328C122.262 331.706 118.29 328.92 113.802 326.971C109.315 325.081 104.701 324.121 99.9608 324.091C94.021 324.052 89.0056 324.86 84.9148 326.513C80.8836 328.227 77.5088 330.485 74.7906 333.287C72.0723 336.09 69.8615 339.286 68.1582 342.875C66.4548 346.464 64.9911 350.114 63.767 353.826C62.5428 357.538 61.4091 361.191 60.3657 364.784C59.3224 368.378 58.0415 371.579 56.5233 374.39C55.065 377.2 53.2504 379.438 51.0795 381.104C48.9083 382.83 46.1127 383.682 42.6928 383.66C36.5729 383.62 31.8753 381.7 28.5999 377.898C25.3845 374.097 23.7992 368.747 23.844 361.847C23.8733 357.347 24.4984 353.481 25.7194 350.249C27 347.077 28.3981 344.296 29.9137 341.906C31.4292 339.516 32.7926 337.455 34.0039 335.723C35.2752 333.991 35.9157 332.375 35.9254 330.875C35.9324 329.795 35.6391 328.773 35.0453 327.809C34.5116 326.846 33.8267 326.061 32.9906 325.456L21.427 318.271C18.8307 320.774 16.472 323.638 14.351 326.865C12.23 330.091 10.4077 333.529 8.88392 337.179C7.35979 340.89 6.19468 344.752 5.38859 348.767C4.5225 352.781 4.07601 356.859 4.04912 360.999C4.00236 368.198 5.04084 374.595 7.16455 380.189C9.34826 385.784 12.3176 390.513 16.0726 394.377C19.8872 398.302 24.338 401.271 29.425 403.284C34.5717 405.358 40.0849 406.414 45.9648 406.452C51.3647 406.487 55.9602 405.647 59.7515 403.931C63.5423 402.276 66.7368 400.047 69.3351 397.243C71.9934 394.441 74.1742 391.245 75.8775 387.656C77.6409 384.067 79.1648 380.387 80.4493 376.615C81.7938 372.844 83.0478 369.162 84.2111 365.569C85.3745 361.977 86.6853 358.775 88.1436 355.965C89.6019 353.154 91.3566 350.885 93.4079 349.159C95.4588 347.492 98.0142 346.669 101.074 346.688C103.474 346.704 105.661 347.138 107.636 347.991C109.67 348.844 111.402 350.116 112.831 351.805C114.26 353.554 115.356 355.691 116.12 358.216C116.943 360.742 117.344 363.684 117.322 367.044C117.298 370.764 116.797 373.971 115.82 376.665C114.902 379.419 113.866 381.812 112.713 383.845C111.56 385.877 110.499 387.61 109.529 389.044C108.619 390.538 108.161 391.915 108.152 393.175C108.145 394.375 108.408 395.367 108.943 396.151ZM4.47235 517.557L4.35077 536.277L134.82 486.003L134.98 461.343L5.17552 409.289L5.05277 428.189C5.03952 430.229 5.5984 431.942 6.72942 433.33C7.86043 434.717 9.11436 435.655 10.4912 436.144L36.9775 446.037L36.6274 499.945L10.0148 509.493C8.45059 510.143 7.12418 511.124 6.03563 512.437C5.00708 513.75 4.48599 515.457 4.47235 517.557ZM53.7674 493.847L54.0368 452.357L97.0431 468.477C99.018 469.27 101.323 470.065 103.958 470.862C106.592 471.719 109.437 472.578 112.491 473.438C109.426 474.258 106.57 475.079 103.925 475.902C101.34 476.725 99.0844 477.521 97.1593 478.288L53.7674 493.847ZM23.7471 626.205L24.085 574.186L134.243 574.901L134.4 550.692L4.26264 549.847L3.76755 626.075L23.7471 626.205ZM113.999 726.259L133.259 726.384L133.792 644.306L3.65464 643.46L3.12157 725.539L22.4712 725.664L22.8464 667.886L59.6556 668.125L59.3599 713.664L77.9895 713.785L78.2852 668.246L114.374 668.48L113.999 726.259ZM106.225 814.725C106.819 815.569 107.744 816.355 108.999 817.083L120.39 823.188C124.739 818.656 128.135 813.158 130.577 806.693C133.019 800.229 134.265 793.157 134.315 785.477C134.359 778.637 133.349 772.571 131.283 767.277C129.218 761.984 126.456 757.526 123 753.903C119.543 750.28 115.571 747.495 111.084 745.545C106.596 743.656 101.982 742.696 97.2423 742.665C91.3025 742.627 86.2871 743.434 82.1963 745.088C78.1651 746.802 74.7903 749.06 72.0721 751.862C69.3538 754.665 67.143 757.86 65.4397 761.449C63.7363 765.038 62.2726 768.689 61.0484 772.401C59.8243 776.113 58.6906 779.766 57.6472 783.359C56.6038 786.952 55.323 790.154 53.8047 792.964C52.3465 795.775 50.5319 798.013 48.361 799.679C46.1898 801.405 43.3942 802.257 39.9742 802.235C33.8544 802.195 29.1567 800.274 25.8814 796.473C22.666 792.672 21.0807 787.322 21.1255 780.422C21.1547 775.922 21.7799 772.056 23.0009 768.824C24.2815 765.652 25.6796 762.871 27.1951 760.481C28.7107 758.091 30.0741 756.029 31.2854 754.297C32.5567 752.566 33.1972 750.95 33.2069 749.45C33.2139 748.37 32.9206 747.348 32.3268 746.384C31.793 745.42 31.1081 744.636 30.272 744.031L18.7085 736.845C16.1122 739.348 13.7535 742.213 11.6325 745.44C9.5115 748.666 7.68913 752.104 6.16539 755.754C4.64127 759.464 3.47616 763.327 2.67006 767.342C1.80397 771.356 1.35748 775.433 1.3306 779.573C1.28384 786.773 2.32231 793.17 4.44603 798.764C6.62974 804.358 9.59909 809.088 13.3541 812.952C17.1687 816.877 21.6195 819.846 26.7065 821.859C31.8531 823.932 37.3664 824.988 43.2463 825.026C48.6462 825.062 53.2417 824.221 57.0329 822.506C60.8238 820.851 64.0183 818.621 66.6166 815.818C69.2748 813.015 71.4556 809.819 73.159 806.23C74.9223 802.642 76.4463 798.962 77.7308 795.19C79.0753 791.418 80.3292 787.737 81.4926 784.144C82.656 780.552 83.9668 777.35 85.4251 774.539C86.8833 771.729 88.6381 769.46 90.6894 767.733C92.7402 766.067 95.2956 765.243 98.3556 765.263C100.756 765.279 102.943 765.713 104.917 766.566C106.952 767.419 108.684 768.69 110.113 770.38C111.541 772.129 112.637 774.266 113.401 776.791C114.225 779.317 114.626 782.259 114.604 785.619C114.58 789.339 114.079 792.546 113.101 795.24C112.183 797.994 111.148 800.387 109.995 802.419C108.841 804.452 107.78 806.185 106.811 807.619C105.901 809.113 105.442 810.49 105.434 811.75C105.426 812.95 105.69 813.942 106.225 814.725ZM105.297 957.481C105.892 958.325 106.817 959.111 108.072 959.839L119.463 965.943C123.812 961.411 127.208 955.913 129.65 949.449C132.092 942.985 133.338 935.913 133.388 928.233C133.432 921.393 132.422 915.326 130.356 910.033C128.29 904.739 125.529 900.281 122.073 896.659C118.616 893.036 114.644 890.25 110.157 888.301C105.669 886.412 101.055 885.452 96.3152 885.421C90.3753 885.382 85.3599 886.19 81.2691 887.843C77.2379 889.557 73.8632 891.815 71.1449 894.618C68.4266 897.42 66.2158 900.616 64.5125 904.205C62.8092 907.794 61.3454 911.444 60.1213 915.157C58.8971 918.869 57.7634 922.521 56.72 926.115C55.6767 929.708 54.3959 932.91 52.8776 935.72C51.4193 938.531 49.6047 940.769 47.4339 942.435C45.2626 944.161 42.467 945.013 39.0471 944.99C32.9272 944.951 28.2296 943.03 24.9542 939.229C21.7388 935.428 20.1535 930.077 20.1983 923.177C20.2276 918.678 20.8527 914.812 22.0737 911.579C23.3543 908.408 24.7524 905.627 26.268 903.237C27.7835 900.846 29.147 898.785 30.3582 897.053C31.6295 895.321 32.27 893.705 32.2798 892.205C32.2868 891.125 31.9934 890.103 31.3996 889.14C30.8659 888.176 30.181 887.392 29.3449 886.786L17.7813 879.601C15.185 882.104 12.8263 884.969 10.7053 888.195C8.58434 891.421 6.76198 894.86 5.23824 898.51C3.71411 902.22 2.549 906.083 1.74291 910.097C0.876817 914.112 0.430328 918.189 0.403441 922.329C0.35668 929.529 1.39516 935.926 3.51887 941.52C5.70259 947.114 8.67193 951.843 12.4269 955.708C16.2415 959.633 20.6923 962.602 25.7793 964.615C30.926 966.688 36.4393 967.744 42.3191 967.782C47.719 967.817 52.3146 966.977 56.1058 965.262C59.8966 963.606 63.0912 961.377 65.6894 958.574C68.3477 955.771 70.5285 952.575 72.2318 948.986C73.9952 945.397 75.5191 941.717 76.8036 937.945C78.1482 934.174 79.4021 930.492 80.5654 926.9C81.7288 923.307 83.0396 920.106 84.4979 917.295C85.9562 914.484 87.711 912.216 89.7622 910.489C91.8131 908.822 94.3685 907.999 97.4284 908.019C99.8284 908.034 102.016 908.469 103.99 909.321C106.025 910.175 107.756 911.446 109.185 913.135C110.614 914.885 111.71 917.022 112.474 919.547C113.297 922.072 113.698 925.015 113.677 928.375C113.652 932.095 113.152 935.301 112.174 937.995C111.256 940.749 110.221 943.143 109.067 945.175C107.914 947.208 106.853 948.941 105.884 950.375C104.974 951.869 104.515 953.246 104.507 954.506C104.499 955.706 104.762 956.697 105.297 957.481Z" fill="#AB893B" fill-opacity="0.21"/>
</svg>
